<?xml version="1.0" encoding="iso-8859-1"?>
<!-- Generator: Adobe Illustrator 19.0.0, SVG Export Plug-In . SVG Version: 6.00 Build 0)  -->
<svg version="1.1" id="Capa_1" xmlns="http://www.w3.org/2000/svg" xmlns:xlink="http://www.w3.org/1999/xlink" x="0px" y="0px"
	 viewBox="0 0 438.1 438.1" style="enable-background:new 0 0 438.1 438.1;" xml:space="preserve">
<g>
	<g>
		<path d="M410.499,134.9c-2.7-8.4-6.1-16.7-10-24.7c-23.1-45.8-62.4-80.2-105.4-93.3v-6.6c0.1-5.6-4.4-10.1-9.9-10.3h-143.9
			c-5.6,0.1-10.1,4.7-10.2,10.3V26h-28V10.3c-0.1-5.6-4.7-10.2-10.3-10.3h-55.5c-5.6,0.1-10.1,4.7-10.2,10.3v100.3
			c0,5.5,4.6,10.5,10.2,10.5h55.5c5.7-0.2,10.2-4.8,10.3-10.5V95.1h28v15.5c0,5.5,4.6,10.5,10.2,10.5h20.8v266c0,28.2,22.8,51,51,51
			c28.2,0,51-22.8,51-51v-266h21.1c5.5,0,9.9-5,9.9-10.5v-0.8c45,1.1,75.9,12.1,98.7,35.2c3.9,4,10.2,4,14.2,0.1
			C410.699,142.4,411.699,138.5,410.499,134.9z M83.099,101.1h-36v-81h36V101.1z M131.099,75.1h-28v-29h28V75.1z M244.099,387.1
			c0,17.1-13.9,31-31,31c-17.1,0-31-13.9-31-31v-92h62V387.1z M244.099,275.1h-62v-154h62V275.1z M275.099,101.1h-124v-81h124V101.1
			z M295.099,89.8V38c32,11.4,61.2,36.4,81,69.5C349.499,93.7,320.099,90.3,295.099,89.8z"/>
	</g>
</g>
<g>
</g>
<g>
</g>
<g>
</g>
<g>
</g>
<g>
</g>
<g>
</g>
<g>
</g>
<g>
</g>
<g>
</g>
<g>
</g>
<g>
</g>
<g>
</g>
<g>
</g>
<g>
</g>
<g>
</g>
</svg>
